# xmcd
#
# Track frame offsets:
#	150
#	11216
#	27687
#	42065
#	59610
#	74433
#	88884
#	102895
#	122348
#	139829
#	157131
#	173389
#	191412
#	207550
#	225365
#	241290
#
# Disc length: 3414 seconds
#
# Revision: 1
# Processed by: cddbd v1.5.1PL0 Copyright (c) Steve Scherf et al.
# Submitted via: audiograbber 1.83.01
#
DISCID=dd0d5410
DTITLE=Linda Ronstadt - The Very Best Of Linda Ronstadt Disc 2
DYEAR=2003
DGENRE=Country
TTITLE0=It's So Easy
TTITLE1=Poor Poor Pitiful Me
TTITLE2=Hurt So Bad
TTITLE3=Blue Bayou
TTITLE4=Ooh Baby Baby
TTITLE5=Just One Look
TTITLE6=Piel Canela
TTITLE7=I Get Along Without You Very Well
TTITLE8=What's New
TTITLE9=When You Wish Upon A Star
TTITLE10=Adios
TTITLE11=Somewhere Out There
TTITLE12=Don't Know Much
TTITLE13=Try Me Again
TTITLE14=All My Life
TTITLE15=Winter Light
EXTD=
EXTT0=
EXTT1=
EXTT2=
EXTT3=
EXTT4=
EXTT5=
EXTT6=
EXTT7=
EXTT8=
EXTT9=
EXTT10=
EXTT11=
EXTT12=
EXTT13=
EXTT14=
EXTT15=
PLAYORDER=
